<svg xmlns="http://www.w3.org/2000/svg" xmlns:svg="http://www.w3.org/2000/svg" xmlns:xlink="http://www.w3.org/1999/xlink" id="svg2" width="506.379" height="490.606" version="1.1"><defs id="defs4"><linearGradient id="linearGradient3984"><stop style="stop-color:#f4deba;stop-opacity:1" id="stop3986" offset="0"/><stop style="stop-color:#de9625;stop-opacity:0" id="stop3988" offset="1"/></linearGradient><linearGradient id="linearGradient3946"><stop id="stop3948" offset="0" style="stop-color:#000;stop-opacity:.74698794"/><stop id="stop3950" offset="1" style="stop-color:#000;stop-opacity:.02409638"/></linearGradient><linearGradient id="linearGradient3830"><stop style="stop-color:#000;stop-opacity:.74698794" id="stop3832" offset="0"/><stop style="stop-color:#000;stop-opacity:.02409638" id="stop3834" offset="1"/></linearGradient><linearGradient id="linearGradient3822"><stop style="stop-color:#c00;stop-opacity:0" id="stop3824" offset="0"/><stop style="stop-color:#c00;stop-opacity:0" id="stop3826" offset="1"/></linearGradient><linearGradient id="linearGradient3806"><stop style="stop-color:#000;stop-opacity:1" id="stop3808" offset="0"/><stop style="stop-color:#000;stop-opacity:0" id="stop3810" offset="1"/></linearGradient><linearGradient id="linearGradient3702"><stop style="stop-color:#fff;stop-opacity:1" id="stop3704" offset="0"/><stop style="stop-color:#fff;stop-opacity:0" id="stop3706" offset="1"/></linearGradient><linearGradient id="linearGradient3708" x1="424.176" x2="441.037" y1="727.357" y2="417.465" gradientTransform="matrix(0.96595983,0,0,0.96316005,15.449188,22.484251)" gradientUnits="userSpaceOnUse" xlink:href="#linearGradient3702"/><linearGradient id="linearGradient3828" x1="340.444" x2="340.444" y1="634.275" y2="634.275" gradientUnits="userSpaceOnUse" xlink:href="#linearGradient3822"/><linearGradient id="linearGradient3836" x1="340.444" x2="268.556" y1="634.275" y2="590.449" gradientUnits="userSpaceOnUse" xlink:href="#linearGradient3830"/><linearGradient id="linearGradient3828-6" x1="340.444" x2="340.444" y1="634.275" y2="634.275" gradientUnits="userSpaceOnUse" xlink:href="#linearGradient3822-2"/><linearGradient id="linearGradient3822-2"><stop style="stop-color:#c00;stop-opacity:0" id="stop3824-6" offset="0"/><stop style="stop-color:#c00;stop-opacity:0" id="stop3826-2" offset="1"/></linearGradient><linearGradient id="linearGradient3836-3" x1="340.444" x2="268.556" y1="634.275" y2="590.449" gradientUnits="userSpaceOnUse" xlink:href="#linearGradient3830-9"/><linearGradient id="linearGradient3830-9"><stop style="stop-color:#000;stop-opacity:.74698794" id="stop3832-7" offset="0"/><stop style="stop-color:#000;stop-opacity:.02409638" id="stop3834-5" offset="1"/></linearGradient><linearGradient id="linearGradient3859" x1="340.444" x2="340.444" y1="634.275" y2="634.275" gradientUnits="userSpaceOnUse" xlink:href="#linearGradient3822-2"/><linearGradient id="linearGradient3861" x1="340.444" x2="268.556" y1="634.275" y2="590.449" gradientUnits="userSpaceOnUse" xlink:href="#linearGradient3830-9"/><linearGradient id="linearGradient3859-2" x1="340.444" x2="340.444" y1="634.275" y2="634.275" gradientUnits="userSpaceOnUse" xlink:href="#linearGradient3822-2-3"/><linearGradient id="linearGradient3822-2-3"><stop style="stop-color:#c00;stop-opacity:0" id="stop3824-6-8" offset="0"/><stop style="stop-color:#c00;stop-opacity:0" id="stop3826-2-7" offset="1"/></linearGradient><linearGradient id="linearGradient3861-2" x1="340.444" x2="268.556" y1="634.275" y2="590.449" gradientUnits="userSpaceOnUse" xlink:href="#linearGradient3830-9-1"/><linearGradient id="linearGradient3830-9-1"><stop style="stop-color:#000;stop-opacity:.74698794" id="stop3832-7-9" offset="0"/><stop style="stop-color:#000;stop-opacity:.02409638" id="stop3834-5-9" offset="1"/></linearGradient><linearGradient id="linearGradient3913" x1="337.07" x2="337.07" y1="570.382" y2="570.382" gradientUnits="userSpaceOnUse" xlink:href="#linearGradient3822-2-3"/><linearGradient id="linearGradient3915" x1="337.07" x2="271.93" y1="570.382" y2="654.342" gradientUnits="userSpaceOnUse" xlink:href="#linearGradient3946"/><filter id="filter3978" color-interpolation-filters="sRGB"><feGaussianBlur id="feGaussianBlur3980" stdDeviation="10.121"/></filter><radialGradient id="radialGradient3990" cx="352" cy="501.862" r="10" fx="352" fy="501.862" gradientTransform="matrix(1.8,0.2,-0.1159531,1.0435779,-223.40752,-92.270111)" gradientUnits="userSpaceOnUse" xlink:href="#linearGradient3984"/><filter id="filter4079" width="1.545" height="2.054" x="-.272" y="-.527" color-interpolation-filters="sRGB"><feGaussianBlur id="feGaussianBlur4081" stdDeviation="9.567"/></filter></defs><metadata id="metadata7"/><g id="layer1" transform="translate(-174.55695,-383.0422)"><path style="opacity:.39259261;fill:#000;fill-opacity:1;stroke:none;filter:url(#filter3978)" id="path2818-9" d="m 467.45216,411.37716 c -1.30465,0.0143 -2.61161,0.0491 -3.90625,0.0937 -119.22341,4.11116 -200,152.125 -205,172.125 -7.01567,28.0627 -20.5927,82.27834 -16.40625,123.59375 3.57142,31.42857 29.26339,96.41517 61.40625,97.84375 32.14286,1.42857 13.58928,-86.41518 72.875,-102.84375 55.4834,-15.37491 -20,142.83036 15,145.6875 35,2.85715 84.27232,9.2991 162.84375,-67.84375 C 595.14791,739.8935 660.98208,677.81852 656.42091,584.31466 650.79591,469.70529 549.645,410.47507 467.45216,411.37716 z m 8.65625,286.65625 c 13.57563,-0.29097 28.74314,2.55005 33.15625,19.15625 4.0037,15.06562 -8.164,33.68064 -30.71875,39.28125 -20.92512,5.19595 -43.56696,2.13392 -49.28125,-21.4375 -5.71428,-25 22.875,-35.00892 37.875,-36.4375 2.8125,-0.26786 5.83591,-0.49535 8.96875,-0.5625 z"/><path style="fill:#e9b96e;fill-opacity:1;stroke:#836d00;stroke-width:15;stroke-linecap:butt;stroke-linejoin:miter;stroke-miterlimit:4;stroke-opacity:1;stroke-dasharray:none" id="path2818" d="m 443.48906,390.55235 c -1.30465,0.0143 -2.61161,0.0491 -3.90625,0.0937 -119.22341,4.11116 -200,152.125 -205,172.125 -7.01567,28.0627 -20.5927,82.27834 -16.40625,123.59375 3.57142,31.42857 29.26339,96.41517 61.40625,97.84375 32.14286,1.42857 13.58928,-86.41518 72.875,-102.84375 55.4834,-15.37491 -20,142.83036 15,145.6875 35,2.85715 84.27232,9.2991 162.84375,-67.84375 40.88325,-40.13986 106.71742,-102.21484 102.15625,-195.7187 -5.625,-114.60937 -106.77591,-173.83959 -188.96875,-172.9375 z m 8.65625,286.65625 c 13.57563,-0.29097 28.74314,2.55005 33.15625,19.15625 4.0037,15.06562 -8.164,33.68064 -30.71875,39.28125 -20.92512,5.19595 -43.56696,2.13392 -49.28125,-21.4375 -5.71428,-25 22.875,-35.00892 37.875,-36.4375 2.8125,-0.26786 5.83591,-0.49535 8.96875,-0.5625 z"/><path style="fill:none;stroke:url(#linearGradient3708);stroke-width:14.46838379;stroke-linecap:butt;stroke-linejoin:miter;stroke-miterlimit:4;stroke-opacity:.44615383;stroke-dasharray:none" id="path2818-4" d="m 450.62691,406.59574 c -1.21334,0.0132 -9.32855,-0.64242 -10.53259,-0.601 -110.87922,3.81353 -187.38238,143.1756 -192.03244,161.72766 -6.52467,26.03106 -19.15146,76.32168 -15.25802,114.646 3.32147,29.15325 25.38341,88.04066 50.20886,88.69628 5.65639,0.14938 8.41657,-97.98439 76.05429,-105.22117 66.55196,-7.1206 -2.07341,149.0238 17.621,148.03724 33.37145,-1.67168 73.32353,2.56496 146.39592,-68.993 C 561.10586,707.65381 622.33245,655.1236 618.09049,568.3891 612.85917,462.07706 527.06725,405.75897 450.62691,406.59574 z m 8.27137,254.01646 c 12.6255,-0.2699 37.62219,7.8692 41.72644,31.35439 2.48971,14.24655 -1.50039,52.95493 -46.58021,58.55665 -35.73162,4.44009 -58.899,-14.67963 -64.21335,-36.54456 -5.31435,-23.19008 28.49393,-51.84173 49.51517,-52.15674 2.62713,-0.0394 16.63837,-1.14744 19.55195,-1.20974 z"/><path style="fill:#204a87;fill-opacity:1;stroke:none" id="path3720" d="m 351,612.36218 c 0,16.01626 -20.81876,29 -46.5,29 -25.68124,0 -46.5,-12.98374 -46.5,-29 0,-16.01626 20.81876,-29 46.5,-29 25.68124,0 46.5,12.98374 46.5,29 z" transform="matrix(0.89538199,-0.04398891,0.26102296,1.1630351,-129.98441,-96.94189)"/><path style="fill:#c00;fill-opacity:1;stroke:none" id="path3720-8" d="m 351,612.36218 c 0,16.01626 -20.81876,29 -46.5,29 -25.68124,0 -46.5,-12.98374 -46.5,-29 0,-16.01626 20.81876,-29 46.5,-29 25.68124,0 46.5,12.98374 46.5,29 z" transform="matrix(0.51289471,0.74112566,-0.84130407,0.77946245,711.50636,-188.12393)"/><path style="fill:#eeeeec;fill-opacity:1;stroke:none" id="path3720-5" d="m 351,612.36218 c 0,16.01626 -20.81876,29 -46.5,29 -25.68124,0 -46.5,-12.98374 -46.5,-29 0,-16.01626 20.81876,-29 46.5,-29 25.68124,0 46.5,12.98374 46.5,29 z" transform="matrix(0.89639891,-0.01062647,0.21754629,1.1719459,34.829403,-251.05743)"/><path style="fill:#fce94f;fill-opacity:1;stroke:none" id="path3720-4" d="m 351,612.36218 c 0,16.01626 -20.81876,29 -46.5,29 -25.68124,0 -46.5,-12.98374 -46.5,-29 0,-16.01626 20.81876,-29 46.5,-29 25.68124,0 46.5,12.98374 46.5,29 z" transform="matrix(-0.11736629,0.88874579,-1.1909943,0.04812628,1303.0579,206.26837)"/><path style="fill:#2e3436;fill-opacity:1;stroke:none" id="path3720-4-6" d="m 351,612.36218 c 0,16.01626 -20.81876,29 -46.5,29 -25.68124,0 -46.5,-12.98374 -46.5,-29 0,-16.01626 20.81876,-29 46.5,-29 25.68124,0 46.5,12.98374 46.5,29 z" transform="matrix(-0.76100344,0.47383298,-0.79363048,-0.88934483,1275.7148,1002.6812)"/><path style="fill:url(#linearGradient3828);fill-opacity:1;stroke:url(#linearGradient3836);stroke-width:4.94276237;stroke-miterlimit:4;stroke-opacity:1;stroke-dasharray:none" id="path3720-8-6" d="m 351,612.36218 c 0,16.01626 -20.81876,29 -46.5,29 -25.68124,0 -46.5,-12.98374 -46.5,-29 0,-16.01626 20.81876,-29 46.5,-29 25.68124,0 46.5,12.98374 46.5,29 z" transform="matrix(0.51289471,0.74112566,-0.84130407,0.77946245,713.00636,-188.62391)"/><path style="fill:url(#linearGradient3859);fill-opacity:1;stroke:url(#linearGradient3861);stroke-width:4.94276237;stroke-miterlimit:4;stroke-opacity:1;stroke-dasharray:none" id="path3720-8-6-5" d="m 351,612.36218 c 0,16.01626 -20.81876,29 -46.5,29 -25.68124,0 -46.5,-12.98374 -46.5,-29 0,-16.01626 20.81876,-29 46.5,-29 25.68124,0 46.5,12.98374 46.5,29 z" transform="matrix(0.65571898,0.57931823,-1.0755795,0.60928508,902.4778,-86.143366)"/><path style="fill:url(#linearGradient3913);fill-opacity:1;stroke:url(#linearGradient3915);stroke-width:4.94276237;stroke-miterlimit:4;stroke-opacity:1;stroke-dasharray:none" id="path3720-8-6-5-3" d="m 351,612.36218 c 0,16.01626 -20.81876,29 -46.5,29 -25.68124,0 -46.5,-12.98374 -46.5,-29 0,-16.01626 20.81876,-29 46.5,-29 25.68124,0 46.5,12.98374 46.5,29 z" transform="matrix(-0.29477842,0.87629665,-1.15066,-0.39014072,1333.3807,477.43727)"/><path style="opacity:.75925927;fill:url(#radialGradient3990);fill-opacity:1;stroke:none" id="path3982" d="m 362,501.86218 c 0,5.79899 -4.47715,10.5 -10,10.5 -5.52285,0 -10,-4.70101 -10,-10.5 0,-5.79899 4.47715,-10.5 10,-10.5 5.52285,0 10,4.70101 10,10.5 z" transform="matrix(2.35,0,0,2.3809523,-481.7,-694.54778)"/></g><g id="layer2" transform="translate(-174.55695,-383.0422)"><path style="opacity:.44444442;fill:#000;fill-opacity:1;stroke:none;filter:url(#filter4079)" id="path3993-2-7" d="m 629.74873,786.46306 c -70.55898,-26.31564 -70.73031,-25.88227 -70.73031,-25.88227 l -12.17463,15.67822 c 0,0 73.91805,27.885 78.91077,27.885 4.99272,0 6.9898,-13.89218 3.99417,-17.68095 z" transform="matrix(1.0230351,0,0,0.96647559,-13.067697,24.728228)"/><path style="fill:#8f5902;stroke:#6a4202;stroke-width:10;stroke-linecap:butt;stroke-linejoin:miter;stroke-miterlimit:4;stroke-opacity:1;stroke-dasharray:none" id="path3993" d="M 471.00563,715.62264 C 319.83618,654.57923 297.07118,662.55683 297.02296,662.57612 l -2.99841,13.09372 c 0,7.18976 160.91477,61.15193 165.91212,52.3749 2.47263,-4.34278 14.06737,-8.85108 11.06896,-12.4221 z"/><path style="fill:#8f5902;stroke:#6a4202;stroke-width:9.25179672;stroke-linecap:butt;stroke-linejoin:miter;stroke-miterlimit:4;stroke-opacity:1;stroke-dasharray:none" id="path3993-2" d="M 623.10896,769.33794 C 554.43446,746.19477 554.2677,746.5759 554.2677,746.5759 l -11.84947,13.78813 c 0,0 71.94386,24.52334 76.80324,24.52334 4.85937,0 6.80312,-12.21741 3.88749,-15.54943 z"/><path style="fill:#babdb6;stroke:#777;stroke-width:10.09500027;stroke-linecap:butt;stroke-linejoin:miter;stroke-miterlimit:4;stroke-opacity:1;stroke-dasharray:none" id="path4017" d="m 294.0448,660.42379 -35.91036,-14.57752 -5.52517,16.462 36.21379,12.04526 5.22174,-13.92974 z"/><path style="fill:#2e3436;stroke:#000;stroke-width:10.54847908;stroke-linecap:butt;stroke-linejoin:miter;stroke-miterlimit:4;stroke-opacity:1;stroke-dasharray:none" id="path4019" d="m 252.71105,641.98713 -33.72877,-25.67777 -37.44627,3.49214 -1.70482,18.16608 30.70513,16.77793 36.30896,4.3843 5.86577,-17.14268 z"/></g></svg>