<svg xmlns="http://www.w3.org/2000/svg" xmlns:svg="http://www.w3.org/2000/svg" xmlns:xlink="http://www.w3.org/1999/xlink" id="svg2" width="497.279" height="497.68" version="1.1"><defs id="defs4"><linearGradient id="linearGradient3628"><stop style="stop-color:#fff;stop-opacity:.96987951" id="stop3630" offset="0"/><stop style="stop-color:#fff;stop-opacity:0" id="stop3632" offset="1"/></linearGradient><linearGradient id="linearGradient3634" x1="232.902" x2="206.071" y1="409.955" y2="359.862" gradientUnits="userSpaceOnUse" xlink:href="#linearGradient3628"/><linearGradient id="linearGradient3628-5"><stop style="stop-color:#7e7e7e;stop-opacity:.39156628" id="stop3630-1" offset="0"/><stop style="stop-color:#000;stop-opacity:0" id="stop3632-1" offset="1"/></linearGradient><linearGradient id="linearGradient3681" x1="232.902" x2="206.071" y1="409.955" y2="359.862" gradientUnits="userSpaceOnUse" xlink:href="#linearGradient3628-5"/><linearGradient id="linearGradient3710" x1="232.902" x2="190.711" y1="409.955" y2="340.318" gradientUnits="userSpaceOnUse" xlink:href="#linearGradient3628"/><linearGradient id="linearGradient3751" x1="232.902" x2="206.071" y1="409.955" y2="359.862" gradientUnits="userSpaceOnUse" xlink:href="#linearGradient3628"/><linearGradient id="linearGradient3755" x1="232.902" x2="206.071" y1="409.955" y2="359.862" gradientUnits="userSpaceOnUse" xlink:href="#linearGradient3628"/><linearGradient id="linearGradient3784" x1="232.902" x2="206.071" y1="409.955" y2="359.862" gradientUnits="userSpaceOnUse" xlink:href="#linearGradient3628"/><linearGradient id="linearGradient3786" x1="232.902" x2="190.711" y1="409.955" y2="340.318" gradientUnits="userSpaceOnUse" xlink:href="#linearGradient3628"/><linearGradient id="linearGradient3788" x1="232.902" x2="206.071" y1="409.955" y2="359.862" gradientUnits="userSpaceOnUse" xlink:href="#linearGradient3628"/><linearGradient id="linearGradient3814" x1="232.902" x2="206.071" y1="409.955" y2="359.862" gradientUnits="userSpaceOnUse" xlink:href="#linearGradient3628"/><linearGradient id="linearGradient3816" x1="232.902" x2="190.711" y1="409.955" y2="340.318" gradientUnits="userSpaceOnUse" xlink:href="#linearGradient3628"/><linearGradient id="linearGradient3818" x1="232.902" x2="206.071" y1="409.955" y2="359.862" gradientUnits="userSpaceOnUse" xlink:href="#linearGradient3628"/><linearGradient id="linearGradient3834" x1="232.902" x2="206.071" y1="409.955" y2="359.862" gradientUnits="userSpaceOnUse" xlink:href="#linearGradient3628"/><linearGradient id="linearGradient3836" x1="232.902" x2="190.711" y1="409.955" y2="340.318" gradientUnits="userSpaceOnUse" xlink:href="#linearGradient3628"/><linearGradient id="linearGradient3838" x1="232.902" x2="206.071" y1="409.955" y2="359.862" gradientUnits="userSpaceOnUse" xlink:href="#linearGradient3628"/><linearGradient id="linearGradient3852" x1="232.902" x2="206.071" y1="409.955" y2="359.862" gradientUnits="userSpaceOnUse" xlink:href="#linearGradient3628"/><linearGradient id="linearGradient3854" x1="232.902" x2="190.711" y1="409.955" y2="340.318" gradientUnits="userSpaceOnUse" xlink:href="#linearGradient3628"/><linearGradient id="linearGradient3856" x1="232.902" x2="206.071" y1="409.955" y2="359.862" gradientUnits="userSpaceOnUse" xlink:href="#linearGradient3628"/><linearGradient id="linearGradient3869" x1="232.902" x2="206.071" y1="409.955" y2="359.862" gradientUnits="userSpaceOnUse" xlink:href="#linearGradient3628"/><linearGradient id="linearGradient3873" x1="232.902" x2="206.071" y1="409.955" y2="359.862" gradientUnits="userSpaceOnUse" xlink:href="#linearGradient3628"/><linearGradient id="linearGradient3877" x1="232.902" x2="190.711" y1="409.955" y2="340.318" gradientUnits="userSpaceOnUse" xlink:href="#linearGradient3628"/><linearGradient id="linearGradient3972" x1="232.902" x2="206.071" y1="409.955" y2="359.862" gradientUnits="userSpaceOnUse" xlink:href="#linearGradient3628"/><linearGradient id="linearGradient3974" x1="232.902" x2="190.711" y1="409.955" y2="340.318" gradientUnits="userSpaceOnUse" xlink:href="#linearGradient3628"/><linearGradient id="linearGradient3976" x1="232.902" x2="206.071" y1="409.955" y2="359.862" gradientUnits="userSpaceOnUse" xlink:href="#linearGradient3628"/><linearGradient id="linearGradient3996" x1="232.902" x2="206.071" y1="409.955" y2="359.862" gradientUnits="userSpaceOnUse" xlink:href="#linearGradient3628"/><linearGradient id="linearGradient3998" x1="232.902" x2="190.711" y1="409.955" y2="340.318" gradientUnits="userSpaceOnUse" xlink:href="#linearGradient3628"/><linearGradient id="linearGradient4000" x1="232.902" x2="206.071" y1="409.955" y2="359.862" gradientUnits="userSpaceOnUse" xlink:href="#linearGradient3628"/><linearGradient id="linearGradient4018" x1="232.902" x2="190.711" y1="409.955" y2="340.318" gradientUnits="userSpaceOnUse" xlink:href="#linearGradient3628"/><linearGradient id="linearGradient4020" x1="232.902" x2="206.071" y1="409.955" y2="359.862" gradientUnits="userSpaceOnUse" xlink:href="#linearGradient3628"/><linearGradient id="linearGradient4024" x1="232.902" x2="206.071" y1="409.955" y2="359.862" gradientUnits="userSpaceOnUse" xlink:href="#linearGradient3628"/><linearGradient id="linearGradient4030" x1="232.902" x2="206.071" y1="409.955" y2="359.862" gradientUnits="userSpaceOnUse" xlink:href="#linearGradient3628"/><linearGradient id="linearGradient4094" x1="232.902" x2="190.711" y1="409.955" y2="340.318" gradientUnits="userSpaceOnUse" xlink:href="#linearGradient3628"/><linearGradient id="linearGradient4098" x1="232.902" x2="206.071" y1="409.955" y2="359.862" gradientUnits="userSpaceOnUse" xlink:href="#linearGradient3628"/><linearGradient id="linearGradient4131" x1="232.902" x2="206.071" y1="409.955" y2="359.862" gradientUnits="userSpaceOnUse" xlink:href="#linearGradient3628"/><linearGradient id="linearGradient4133" x1="232.902" x2="190.711" y1="409.955" y2="340.318" gradientUnits="userSpaceOnUse" xlink:href="#linearGradient3628"/><linearGradient id="linearGradient4135" x1="232.902" x2="206.071" y1="409.955" y2="359.862" gradientUnits="userSpaceOnUse" xlink:href="#linearGradient3628"/><linearGradient id="linearGradient4180" x1="232.902" x2="206.071" y1="409.955" y2="359.862" gradientUnits="userSpaceOnUse" xlink:href="#linearGradient3628"/><linearGradient id="linearGradient4182" x1="232.902" x2="190.711" y1="409.955" y2="340.318" gradientUnits="userSpaceOnUse" xlink:href="#linearGradient3628"/><linearGradient id="linearGradient4184" x1="232.902" x2="206.071" y1="409.955" y2="359.862" gradientUnits="userSpaceOnUse" xlink:href="#linearGradient3628"/><linearGradient id="linearGradient3690" x1="186.415" x2="216.494" y1="332.198" y2="399.983" gradientUnits="userSpaceOnUse" xlink:href="#linearGradient3628"/><linearGradient id="linearGradient3692" x1="180.644" x2="206.071" y1="329.04" y2="371.681" gradientUnits="userSpaceOnUse" xlink:href="#linearGradient3628"/><linearGradient id="linearGradient3694" x1="183.599" x2="206.071" y1="326.041" y2="359.862" gradientUnits="userSpaceOnUse" xlink:href="#linearGradient3628"/><filter id="filter3736" width="1.801" height="1.851" x="-.4" y="-.425"><feGaussianBlur id="feGaussianBlur3738" stdDeviation="16.33"/></filter><filter id="filter3744" width="1.676" height="1.717" x="-.338" y="-.359"><feGaussianBlur id="feGaussianBlur3746" stdDeviation="13.772"/></filter><filter id="filter3752" width="1.676" height="1.717" x="-.338" y="-.359"><feGaussianBlur id="feGaussianBlur3754" stdDeviation="13.772"/></filter></defs><metadata id="metadata7"/><g id="layer1" transform="translate(-75.138327,22.792165)"><path style="fill:none;stroke:#323232;stroke-width:18.09826088000000155;stroke-linecap:butt;stroke-linejoin:miter;stroke-miterlimit:4;stroke-opacity:1;stroke-dasharray:none" id="path3602-3" d="M 287.73958,332.43284 C 452.40605,136.29609 452.40605,136.29609 452.40605,136.29609"/><path style="fill:none;stroke:#323232;stroke-width:16.16765403999999862;stroke-linecap:butt;stroke-linejoin:miter;stroke-miterlimit:4;stroke-opacity:1;stroke-dasharray:none" id="path3602" d="M 177.64638,189.92306 C 281.46194,334.52015 281.46194,334.52015 281.46194,334.52015"/><path style="opacity:.27407407;fill:#000;fill-opacity:1;stroke:#000;stroke-width:6.90498542999999998;stroke-linejoin:round;stroke-miterlimit:4;stroke-opacity:1;stroke-dasharray:none;stroke-dashoffset:0;filter:url(#filter3744)" id="path4150" d="m 255,359.86218 a 48.92857,46.07143 0 1 1 -97.85714,0 48.92857,46.07143 0 1 1 97.85714,0 z" transform="matrix(1.3910916,0,0,0.52775939,-112.81717,95.883203)"/><path style="fill:#81aad4;fill-opacity:1;stroke:#204a87;stroke-width:8.23209190000000035;stroke-linejoin:round;stroke-miterlimit:4;stroke-opacity:1;stroke-dasharray:none;stroke-dashoffset:0" id="path2816" d="m 255,359.86218 a 48.92857,46.07143 0 1 1 -97.85714,0 48.92857,46.07143 0 1 1 97.85714,0 z" transform="matrix(1.7755563,0,0,1.8816676,-196.35418,-497.77654)"/><path id="path3626" d="m 255,359.86218 a 48.92857,46.07143 0 1 1 -97.85714,0 48.92857,46.07143 0 1 1 97.85714,0 z" transform="matrix(1.5035265,0,0,1.5713125,-138.87251,-382.87721)" style="opacity:.69259255;fill:none;stroke:url(#linearGradient3692);stroke-width:11.71077633;stroke-linejoin:round;stroke-miterlimit:4;stroke-opacity:1;stroke-dasharray:none;stroke-dashoffset:0"/><path style="opacity:.27037037000000003;fill:#000;fill-opacity:1;stroke:#000;stroke-width:6.90498542999999998;stroke-linejoin:round;stroke-miterlimit:4;stroke-opacity:1;stroke-dasharray:none;stroke-dashoffset:0;filter:url(#filter3736)" id="path3804" d="m 255,359.86218 a 48.92857,46.07143 0 1 1 -97.85714,0 48.92857,46.07143 0 1 1 97.85714,0 z" transform="matrix(1.3910916,0,0,0.52775939,175.75426,70.168913)"/><path id="path3642" d="m 255,359.86218 a 48.92857,46.07143 0 1 1 -97.85714,0 48.92857,46.07143 0 1 1 97.85714,0 z" transform="matrix(2.1601684,0,0,2.1982881,14.050753,-657.07345)" style="fill:#e3a955;fill-opacity:1;stroke:#8f5902;stroke-width:6.90500205000000022;stroke-linejoin:round;stroke-miterlimit:4;stroke-opacity:1;stroke-dasharray:none;stroke-dashoffset:0"/><path style="opacity:.69259254999999997;fill:none;stroke:url(#linearGradient3690);stroke-width:9.77212101;stroke-linejoin:round;stroke-miterlimit:4;stroke-opacity:1;stroke-dasharray:none;stroke-dashoffset:0" id="path3644" d="m 255,359.86218 a 48.92857,46.07143 0 1 1 -97.85714,0 48.92857,46.07143 0 1 1 97.85714,0 z" transform="matrix(1.8284573,0,0,1.8555921,82.406936,-533.7501)"/><path id="path4148" d="m 255,359.86218 a 48.92857,46.07143 0 1 1 -97.85714,0 48.92857,46.07143 0 1 1 97.85714,0 z" transform="matrix(1.3910916,0,0,0.52775939,12.182832,199.45463)" style="opacity:.27777777999999997;fill:#000;fill-opacity:1;stroke:#000;stroke-width:6.90498542999999998;stroke-linejoin:round;stroke-miterlimit:4;stroke-opacity:1;stroke-dasharray:none;stroke-dashoffset:0;filter:url(#filter3752)"/><path style="fill:#9bcf69;fill-opacity:1;stroke:#438605;stroke-width:15;stroke-linejoin:round;stroke-miterlimit:4;stroke-opacity:1;stroke-dasharray:none;stroke-dashoffset:0" id="path2816-6" d="m 255,359.86218 a 48.92857,46.07143 0 1 1 -97.85714,0 48.92857,46.07143 0 1 1 97.85714,0 z" transform="matrix(1.0062717,0,0,1,86.879216,-26.926301)"/><path id="path3626-2" d="m 255,359.86218 a 48.92857,46.07143 0 1 1 -97.85714,0 48.92857,46.07143 0 1 1 97.85714,0 z" transform="matrix(0.73463864,0,0,0.6978393,142.85504,81.809913)" style="opacity:.69259255;fill:none;stroke:url(#linearGradient3694);stroke-width:17.70339203;stroke-linejoin:round;stroke-miterlimit:4;stroke-opacity:1;stroke-dasharray:none;stroke-dashoffset:0"/></g></svg>