<svg xmlns="http://www.w3.org/2000/svg" xmlns:svg="http://www.w3.org/2000/svg" xmlns:xlink="http://www.w3.org/1999/xlink" id="svg2" width="406.51" height="406.51" version="1.1"><defs id="defs4"><linearGradient id="linearGradient3741"><stop style="stop-color:#f6e555;stop-opacity:1" id="stop3743" offset="0"/><stop style="stop-color:#f6e555;stop-opacity:0" id="stop3745" offset="1"/></linearGradient><linearGradient id="linearGradient3715"><stop style="stop-color:#fff;stop-opacity:1" id="stop3717" offset="0"/><stop id="stop3749" offset=".5" style="stop-color:#fff;stop-opacity:.6"/><stop style="stop-color:#fff;stop-opacity:.20377358" id="stop3719" offset="1"/></linearGradient><linearGradient id="linearGradient3676"><stop style="stop-color:#000;stop-opacity:0" id="stop3678" offset="0"/><stop style="stop-color:#fff;stop-opacity:0" id="stop3680" offset="1"/></linearGradient><linearGradient id="linearGradient3664"><stop style="stop-color:#fff;stop-opacity:1" id="stop3666" offset="0"/><stop style="stop-color:#fff;stop-opacity:1" id="stop3668" offset="1"/></linearGradient><linearGradient id="linearGradient3721" x1="253.317" x2="348.686" y1="116.988" y2="345.989" gradientUnits="userSpaceOnUse" xlink:href="#linearGradient3715"/><linearGradient id="linearGradient3739" x1="310.749" x2="278.571" y1="284.138" y2="218.897" gradientUnits="userSpaceOnUse" xlink:href="#linearGradient3715"/><linearGradient id="linearGradient3747" x1="332.283" x2="310.749" y1="286.65" y2="284.138" gradientUnits="userSpaceOnUse" xlink:href="#linearGradient3741"/><filter id="filter4182" width="1.203" height="1.226" x="-.102" y="-.113" color-interpolation-filters="sRGB"><feGaussianBlur id="feGaussianBlur4184" stdDeviation="13.771"/></filter></defs><metadata id="metadata7"/><g id="layer1" transform="translate(-169.904,-99.655341)"><path id="path4172" d="m 316.28572,173.53572 c -13.05963,0.18433 -25.78254,6.67149 -33.5,18.46875 l -2.71875,4.15625 c -16.84239,-8.49503 -37.60691,-3.20522 -48.1875,12.96875 l -15.25,23.3125 c -10.58059,16.17397 -7.12461,37.34647 7.40625,49.375 l -2.71875,4.15625 c -12.34794,18.87561 -7.09436,43.99582 11.78125,56.34375 l 178.21875,116.59375 c 18.87561,12.34793 44.02707,7.09436 56.375,-11.78125 l 61.46875,-93.96875 c 12.34794,-18.87561 7.09436,-43.99582 -11.78125,-56.34375 L 339.16072,180.22322 c -7.07835,-4.63047 -15.03922,-6.7981 -22.875,-6.6875 z m -34.84375,62.40625 c 14.20161,0 25.6875,11.51714 25.6875,25.71875 0,14.20161 -11.48589,25.6875 -25.6875,25.6875 -14.20161,0 -25.71875,-11.48589 -25.71875,-25.6875 0,-14.20161 11.51714,-25.71875 25.71875,-25.71875 z" style="opacity:.41132076;fill:#000;fill-opacity:1;stroke:#000;stroke-width:15.04699993;stroke-linejoin:round;stroke-miterlimit:4;stroke-opacity:1;stroke-dasharray:none;stroke-dashoffset:0;filter:url(#filter4182)"/><path style="fill:#f8eb7c;fill-opacity:1;stroke:#cba700;stroke-width:15.04699993;stroke-linejoin:round;stroke-miterlimit:4;stroke-opacity:1;stroke-dasharray:none;stroke-dashoffset:0" id="rect3590" d="m 313.42858,146.39286 c -13.05963,0.18433 -25.78254,6.67149 -33.5,18.46875 l -2.71875,4.15625 c -16.84239,-8.49503 -37.60691,-3.20522 -48.1875,12.96875 l -15.25,23.3125 c -10.58059,16.17397 -7.12461,37.34647 7.40625,49.375 l -2.71875,4.15625 c -12.34794,18.87561 -7.09436,43.99582 11.78125,56.34375 l 178.21875,116.59375 c 18.87561,12.34793 44.02707,7.09436 56.375,-11.78125 l 61.46875,-93.96875 c 12.34794,-18.87561 7.09436,-43.99582 -11.78125,-56.34375 L 336.30358,153.08036 c -7.07835,-4.63047 -15.03922,-6.7981 -22.875,-6.6875 z m -34.84375,62.40625 c 14.20161,0 25.6875,11.51714 25.6875,25.71875 0,14.20161 -11.48589,25.6875 -25.6875,25.6875 -14.20161,0 -25.71875,-11.48589 -25.71875,-25.6875 0,-14.20161 11.51714,-25.71875 25.71875,-25.71875 z"/><path style="opacity:.81132071;fill:none;stroke:url(#linearGradient3721);stroke-width:15.04699993;stroke-linejoin:round;stroke-miterlimit:4;stroke-opacity:1;stroke-dasharray:none;stroke-dashoffset:0" id="path3684" d="m 312.78125,160.40625 c -13.8021,-0.31642 -21.25237,13.37673 -30.5,21.15625 -10.68857,3.30594 -22.24078,-7.41576 -32.34375,-0.0937 -13.10817,8.59743 -19.51136,23.61509 -27.03125,36.625 -3.61727,9.63545 0.35524,20.61191 8,27.03125 4.8109,7.15316 3.71683,17.00658 -2.0625,23.21875 -6.86461,11.68384 -2.49288,27.51062 8.6875,34.84375 12.47153,9.77598 27.08933,16.20012 39.58022,25.78976 48.8499,31.87593 97.11335,65.07034 147.35728,94.86649 15.64603,3.54055 30.45303,-8.5998 35.69061,-22.65776 19.49296,-31.20844 42.75429,-60.4357 58.65314,-93.77974 1.97351,-15.3486 -10.50752,-28.2647 -23.83723,-33.57811 C 437.10714,236.23338 380.11673,196.92987 320.9375,161.2813 c -2.65518,-0.70065 -5.40887,-1.02446 -8.15625,-0.875 z"/><path style="opacity:.81132071;fill:url(#linearGradient3747);fill-opacity:1;stroke:url(#linearGradient3739);stroke-width:15.04699993;stroke-linejoin:round;stroke-miterlimit:4;stroke-opacity:1;stroke-dasharray:none;stroke-dashoffset:0" id="path3731" d="m 320.00001,235.21933 c 0,22.88037 -18.5482,41.42857 -41.42857,41.42857 -22.88037,0 -41.42857,-18.5482 -41.42857,-41.42857 0,-22.88037 18.5482,-41.42857 41.42857,-41.42857 22.88037,0 41.42857,18.5482 41.42857,41.42857 z" transform="matrix(0.97745172,0,0,0.98607239,6.638457,2.5617589)"/><path style="fill:none;stroke:#c4a000;stroke-width:15;stroke-linecap:butt;stroke-linejoin:miter;stroke-miterlimit:4;stroke-opacity:1;stroke-dasharray:none" id="path4223" d="m 383.57143,248.07646 c -52.85714,76.42858 -52.85714,76.42858 -52.85714,76.42858"/><path id="path4235" d="m 421.42857,274.50503 c -52.85714,76.42858 -52.85714,76.42858 -52.85714,76.42858" style="fill:none;stroke:#c4a000;stroke-width:15;stroke-linecap:butt;stroke-linejoin:miter;stroke-miterlimit:4;stroke-opacity:1;stroke-dasharray:none"/><path style="fill:none;stroke:#c4a000;stroke-width:15;stroke-linecap:butt;stroke-linejoin:miter;stroke-miterlimit:4;stroke-opacity:1;stroke-dasharray:none" id="path4237" d="m 460,300.93361 c -52.85714,76.42858 -52.85714,76.42858 -52.85714,76.42858"/></g></svg>